<svg viewBox="0 0 256 106" xmlns="http://www.w3.org/2000/svg" fill-rule="evenodd" clip-rule="evenodd" stroke-linejoin="round" stroke-miterlimit="2"><g fill-rule="nonzero"><path d="M.881 32.203h8.742V23.9l2.893-3.773 7.233 12.076H30.19L19.057 14.34 29.938 0H19.749l-9.686 13.019h-.44V0H.881v32.203zM32.517 0h8.742v32.203h-8.742zM45.411 32.203h8.742v-10.63h3.019l5.661 10.63h9.497l-6.541-12.014c3.428-1.651 5.472-4.78 5.472-9.245C71.261 4.088 66.465 0 59.311 0h-13.9v32.203zm8.742-17.423V6.981h3.082c3.066 0 4.906 1.195 4.906 3.963 0 2.752-1.84 3.836-4.906 3.836h-3.082zM74.972 32.203h15.157c6.997 0 11.322-3.821 11.322-9.12 0-4.545-3.35-7.516-7.485-7.674v-.314c3.727-.739 6.227-3.491 6.227-7.044 0-4.906-3.9-8.051-11.259-8.051H74.972v32.203zm8.742-6.982v-6.793h4.214c2.657 0 4.277 1.258 4.277 3.523 0 2.154-1.462 3.27-4.403 3.27h-4.088zm0-12.202V6.856h3.711c2.17 0 3.774 1.1 3.774 3.081 0 1.982-1.604 3.082-3.9 3.082h-3.585zM103.212 0l11.824 22.076v10.127h8.68V22.076L135.54 0h-9.749l-6.289 13.082h-.252L112.96 0h-9.748zM.881 69.101h8.742v-9.56h4.843c7.343 0 12.265-4.324 12.265-11.258 0-6.856-4.796-11.384-11.951-11.384H.881v32.202zm8.742-16.353V43.88h3.082c3.066 0 4.906 1.635 4.906 4.403 0 2.752-1.84 4.465-4.906 4.465H9.623zM61.134 53c0-10.755-6.918-16.542-15.661-16.542-8.805 0-15.66 5.787-15.66 16.542 0 10.692 6.855 16.542 15.66 16.542 8.743 0 15.661-5.787 15.661-16.542zm-8.994 0c0 5.786-2.327 8.931-6.667 8.931-4.339 0-6.666-3.145-6.666-8.931s2.327-8.931 6.666-8.931c4.34 0 6.667 3.145 6.667 8.931zM65.16 69.101h8.742V58.472h3.019l5.661 10.629h9.497l-6.541-12.013c3.428-1.651 5.472-4.78 5.472-9.245 0-6.856-4.796-10.944-11.95-10.944h-13.9v32.202zm8.742-17.422V43.88h3.082c3.066 0 4.906 1.195 4.906 3.963 0 2.751-1.84 3.836-4.906 3.836h-3.082zM93.84 43.943h9.686v25.158h8.617V43.943h9.686v-7.044H93.84v7.044zM125.099 69.101h8.743V56.522h12.516v-7.044h-12.516v-5.535h13.9v-7.044h-22.643v32.202zM182.146 53c0-10.755-6.919-16.542-15.661-16.542-8.806 0-15.661 5.787-15.661 16.542 0 10.692 6.855 16.542 15.661 16.542 8.742 0 15.661-5.787 15.661-16.542zm-8.994 0c0 5.786-2.328 8.931-6.667 8.931-4.34 0-6.667-3.145-6.667-8.931s2.327-8.931 6.667-8.931c4.339 0 6.667 3.145 6.667 8.931zM186.171 69.101h21.762v-7.044h-13.02V36.899h-8.742v32.202zM211.455 36.899h8.742v32.203h-8.742zM255.545 53c0-10.755-6.919-16.542-15.661-16.542-8.806 0-15.661 5.787-15.661 16.542 0 10.692 6.855 16.542 15.661 16.542 8.742 0 15.661-5.787 15.661-16.542zm-8.994 0c0 5.786-2.327 8.931-6.667 8.931s-6.667-3.145-6.667-8.931 2.327-8.931 6.667-8.931 6.667 3.145 6.667 8.931zM0 80.842h9.686V106h8.617V80.842h9.686v-7.045H0v7.045zM31.259 106h8.743V93.421h11.572V106h8.743V73.797h-8.743v12.58H40.002v-12.58h-8.743V106zM64.468 106h23.146v-7.044H73.21v-5.535h13.271v-7.044H73.21v-5.535h14.466v-7.045H64.468V106zM92.016 73.797V106h8.554V87.257h.252l7.17 18.491h5.157l7.17-18.365h.252V106h8.554V73.797h-10.881l-7.485 18.24h-.377l-7.485-18.24H92.016zM133.276 106h23.145v-7.044h-14.403v-5.535h13.271v-7.044h-13.271v-5.535h14.466v-7.045h-23.208V106z"/></g></svg>